# xmcd CD database file
#
# Track frame offsets:
#	150
#	13874
#	28987
#	39825
#	52426
#	65987
#	79725
#	94488
#	106544
#	118699
#
# Disc length: 1750 seconds
#
# Revision: 0
# Processed by: cddbd v1.5.2PL0 Copyright (c) Steve Scherf et al.
# Submitted via: CDex 1.70beta2
#
DISCID=8b06d40a
DTITLE=Ronnie Milsap - Night Things
DYEAR=1975
DGENRE=Country
TTITLE0=(After Sweet Memories) Play Born To Lose Again
TTITLE1=Who'll Turn Out The Lights (In Your World Tonight)
TTITLE2=Daydreams About Night Things
TTITLE3=I'm No Good At Goodbyes
TTITLE4=Just In Case
TTITLE5=Remember To Remind Me (I'm Leaving)
TTITLE6=Borrowed Angel
TTITLE7=Love Takes A Long Time To Die
TTITLE8=Linda On My Mind
TTITLE9=I'll Be There (If You Ever Want Me)
EXTD=YEAR: 1975
EXTT0=
EXTT1=
EXTT2=
EXTT3=
EXTT4=
EXTT5=
EXTT6=
EXTT7=
EXTT8=
EXTT9=
PLAYORDER=
